<?xml version="1.0" standalone="no"?>
<!DOCTYPE svg PUBLIC "-//W3C//DTD SVG 20010904//EN"
 "http://www.w3.org/TR/2001/REC-SVG-20010904/DTD/svg10.dtd">
<svg version="1.0" xmlns="http://www.w3.org/2000/svg"
 width="1147.000000pt" height="1147.000000pt" viewBox="0 0 1147.000000 1147.000000"
 preserveAspectRatio="xMidYMid meet">
<metadata>
Created by potrace 1.11, written by Peter Selinger 2001-2013
</metadata>
<g transform="translate(0.000000,1147.000000) scale(0.100000,-0.100000)"
fill="#000000" stroke="none">
<path d="M5438 11359 c-855 -44 -1701 -291 -2448 -714 -170 -97 -501 -317
-645 -429 -686 -537 -1207 -1173 -1584 -1936 -298 -602 -472 -1209 -548 -1910
-26 -236 -25 -844 1 -1085 177 -1662 1033 -3096 2408 -4039 l127 -87 -35 -97
c-148 -407 -344 -950 -344 -954 0 -2 449 76 998 174 l997 179 165 -36 c336
-72 640 -111 974 -124 952 -38 1863 157 2707 580 1331 665 2332 1830 2793
3248 113 346 201 765 243 1156 14 134 18 250 18 545 0 419 -11 560 -70 917
-128 765 -411 1486 -840 2133 -547 825 -1297 1486 -2180 1920 -846 416 -1788
608 -2737 559z m1951 -2014 c175 -46 321 -194 360 -365 18 -79 13 -198 -12
-270 -13 -37 -771 -1407 -1782 -3219 -1612 -2890 -1765 -3159 -1818 -3212 -69
-70 -153 -113 -260 -135 -257 -53 -516 120 -577 385 -18 77 -8 203 22 277 25
61 3488 6276 3539 6351 58 83 183 168 285 192 60 14 183 12 243 -4z m-4339
-1356 c180 -28 336 -163 391 -338 28 -88 28 -213 1 -298 -40 -127 9 -74 -1232
-1325 l-274 -278 721 -715 c463 -459 736 -737 762 -776 100 -150 109 -345 24
-513 -33 -65 -123 -159 -187 -195 -155 -89 -360 -85 -511 9 -30 19 -422 404
-966 948 -985 987 -946 943 -999 1102 -46 134 -22 306 58 424 20 30 359 380
752 778 1152 1166 1074 1090 1160 1132 105 50 189 63 300 45z m5525 -21 c126
-32 100 -8 1072 -986 968 -972 950 -952 988 -1086 24 -81 17 -229 -14 -308
-47 -122 -97 -177 -998 -1094 -486 -495 -897 -909 -915 -921 -229 -154 -537
-97 -686 127 -108 161 -111 383 -9 545 18 28 355 379 749 780 l717 730 -718
720 c-661 663 -721 725 -749 785 -17 36 -36 86 -41 110 -13 58 -13 182 0 240
17 76 70 169 130 230 122 124 299 172 474 128z"/>
</g>
</svg>
