<svg id="Balloon_" data-name="Balloon &lt;/&gt;" xmlns="http://www.w3.org/2000/svg" viewBox="0 0 2000 2000"><defs><style>.cls-1 { fill: #212020; stroke: #f4ece0; stroke-linejoin: round; stroke-width: 10px; } .cls-1, .cls-2, .cls-3 { fill-rule: evenodd; } .cls-2 { fill: #f5623d; } .cls-3 { fill: #f4ece0; }</style></defs><path class="cls-1" d="M1004 1547.75a556.4 556.4 0 0 1-135.713-16.74l-200.876 35.87 38.347-106.02C551.722 1362.47 449.6 1190.11 449.6 993.924 449.6 688.056 697.813 440.1 1004 440.1s554.4 247.956 554.4 553.824-248.21 553.826-554.4 553.826z"/><g id="Sign"><g id="_" data-name="&lt;"><path id="Rounded_Rectangle_1" data-name="Rounded Rectangle 1" class="cls-2" d="M763.277 861.972L624.97 1001.9l141.954 141.42a50.3 50.3 0 0 1 .237 70.75 49.385 49.385 0 0 1-70.21.24l-173.45-172.8a57.288 57.288 0 0 1-2.807-75.76l171.944-173.956a49.787 49.787 0 1 1 70.64 70.178z"/></g><path id="_2" data-name="/" class="cls-3" d="M766.325 1289.44l347.605-622.973A49.784 49.784 0 1 1 1200.87 715l-347.6 622.972a49.785 49.785 0 1 1-86.945-48.532z"/><g id="_3" data-name="&gt;"><path id="Rounded_Rectangle_1_copy_6" data-name="Rounded Rectangle 1 copy 6" class="cls-2" d="M1486.48 1030.74a49.19 49.19 0 0 1-7.56 9.86l-170.32 173.53a49.068 49.068 0 0 1-69.74.24 49.928 49.928 0 0 1-.24-70.25l139.95-142.57-137.63-138.077a50.432 50.432 0 0 1-.24-70.58 48.674 48.674 0 0 1 69.55-.24l171.82 172.377a50.444 50.444 0 0 1 4.41 65.71z"/></g></g></svg>
