<svg xmlns="http://www.w3.org/2000/svg" viewBox="0 0 1544.474 1344.441"><path data-name="HACKAThON cut top" d="M1539.464 762.781v55.887h-38.72l-22.04-55.887h5l-13.8-35h-5l-24.69-62.6v62.6h5v35h-5v55.887h-48.09v-55.887h5v-35h-5v-111h-3v-31h3v-43.829h40.25l18.38 43.829h-3l13 31h3l29.31 69.9v-69.9h-3v-31h3v-43.829h46.4v43.829h-3v31h3v111h5v35h-5zm-214.79 287.96l-505.48 292.55c-.69.4-1.4.76-2.1 1.15v-25.21l496.61-287.43a71.287 71.287 0 0 0 35.5-61.53v-75.27h21.88v75.27a93.265 93.265 0 0 1-46.41 80.47zm-119.76-464.96h3q16.725-49.047 73.89-49.053 57.27 0 74.03 49.053h-3a132.187 132.187 0 0 1 6.19 31h3q.75 8.534.75 17.973v91.573c0 .489-.01.968-.01 1.454h5a176.307 176.307 0 0 1-2.45 29.2 109.43 109.43 0 0 1-1.19 5.8h-5a104.24 104.24 0 0 1-7.18 20.856 72.158 72.158 0 0 1-15.06 21.433 64.27 64.27 0 0 1-23.12 13.9q-14 5.07-31.96 5.07-17.835 0-31.81-4.993t-23.04-13.521a69.256 69.256 0 0 1-14.98-20.9 102.1 102.1 0 0 1-7.53-21.845h5c-.33-1.486-.65-2.981-.92-4.5a171.847 171.847 0 0 1-2.54-30.5h-5v-93.027q0-9.442.75-17.973h-3a131.7 131.7 0 0 1 6.18-31zm52 34.991v107.009h5v12.528q0 13.468 2.73 22.472h-5q5.505 18.234 22.16 18.243 16.755 0 22.3-18.243h5q2.73-9.014 2.74-22.472v-12.528h-5V620.772c0-1.368-.02-2.692-.07-3.991h-3q-.705-22.152-9.59-31h3q-5.895-5.874-15.38-5.878a21.222 21.222 0 0 0-12.75 3.764 20.383 20.383 0 0 0-2.5 2.114h-3a22.482 22.482 0 0 0-5.19 8.18 64.843 64.843 0 0 0-3.45 12.907 83.341 83.341 0 0 0-.93 9.913h3c-.05 1.3-.07 2.632-.07 3.991zm-237.54 107.009v-111h-3v-31h3v-43.675h55.93v43.675h-3v31h3v38.715h40.1v-38.715h-3v-31h3v-43.675h56.23v43.675h-3v31h3v111h5v35h-5v55.887h-56.23v-55.887h5v-35h-5V695.29h-40.1v32.491h5v35h-5v55.887h-55.93v-55.887h5v-35h-5zm329.83-353.608a71.3 71.3 0 0 0-35.5-61.538L817.094 25.213V.004c.7.38 1.41.742 2.1 1.142l505.48 292.553a93.268 93.268 0 0 1 46.41 80.474v80.635h-21.88v-80.635zm-538.2 80.084l-2.8-18.687h-19.86l-2.8 18.687h-14.86l16.48-103h23.69l16.48 103h-16.33zm-12.8-84.752l-7.8 52.087h15.6zm-41.64 84.752h-16.19v-88.284h-16.92v-14.714h50.03v14.714h-16.92v88.284zm-560.583-80.084v80.635h-21.887v-80.635a93.255 93.255 0 0 1 46.415-80.474L725.984 1.146c.37-.211.74-.4 1.11-.606v25.247L231.475 312.635a71.3 71.3 0 0 0-35.494 61.538zm-5.806 388.608l7.564-35h-5l23.989-111h-3l6.7-31h3l9.439-43.675h49.474l9.413 43.675h-3l6.682 31h3l23.927 111h5l7.544 35h-5l12.047 55.887h-55.16l-10.741-55.887h5l-.628-3.267h-36.106l-.594 3.267h-5l-10.161 55.887h-55.47l12.081-55.887h5zm81.563-37.683l-13.982-102.636-14.6 102.636h28.578zm-116.463 93.57H99.041v-55.887h5v-35h-5V695.29h-40.1v32.491h5v35h-5v55.887H3.012v-55.887h5v-35h-5v-111h-3v-31h3v-43.675h55.927v43.675h-3v31h3v38.715h40.1v-38.715h-3v-31h3v-43.675h56.234v43.675h-3v31h3v111h5v35h-5v55.887zm302.219-90.887V704.97h54.7v22.811h5v.543a194.81 194.81 0 0 1-2.612 29.193c-.3 1.767-.685 3.517-1.074 5.264h-5a111.879 111.879 0 0 1-6.762 20.7 70.315 70.315 0 0 1-14.058 21.28q-8.527 8.682-22.049 13.981t-31.036 5.3q-17.976 0-31.881-5.147t-22.894-13.828a69.972 69.972 0 0 1-14.826-21.357 105.211 105.211 0 0 1-7.076-20.929h5a109.54 109.54 0 0 1-1.145-5.725 181.492 181.492 0 0 1-2.369-29.275h-5c0-.486-.013-.964-.013-1.454v-91.573q0-9.442.747-17.973h-3a132.757 132.757 0 0 1 6.126-31h3q16.6-49.047 73.33-49.053 16.9 0 30.038 4.533a60.792 60.792 0 0 1 36.721 32.189 92.524 92.524 0 0 1 5 12.331h-3a102.4 102.4 0 0 1 3.294 13.02 150.516 150.516 0 0 1 2.167 17.98h3q.369 5.868.371 12.135v23.815h-55v-25.5q0-5.85-.187-10.445h-3c-.035-.879-.075-1.728-.12-2.539a99.788 99.788 0 0 0-1.614-12.445 42.726 42.726 0 0 0-3.534-11.37 19.377 19.377 0 0 0-3.331-4.651h3a22.38 22.38 0 0 0-3.28-2.8 17.864 17.864 0 0 0-10.525-3.073q-9.2 0-14.915 5.878h-3q-8.6 8.842-9.294 31h3a126.03 126.03 0 0 0-.067 3.991v107.004h5v12.374q0 13.582 2.707 22.626h-5q5.4 18.081 21.569 18.09a18.181 18.181 0 0 0 12.138-4.149q4.916-4.148 7.068-11.753c.207-.733.383-1.459.571-2.188h5a88.042 88.042 0 0 0 2.348-12.716 161.173 161.173 0 0 0 .768-16.671v-5.613h-5zm-261.513 242.49a71.29 71.29 0 0 0 35.494 61.53l495.619 286.85v25.25c-.37-.21-.74-.4-1.11-.61l-505.473-292.55a93.253 93.253 0 0 1-46.417-80.47v-75.27h21.885v75.27zm523.653 28.71c0-16.63 8.68-25.9 24.57-25.9s24.57 9.27 24.57 25.9v53.56c0 16.62-8.68 25.89-24.57 25.89s-24.57-9.27-24.57-25.89v-53.56zm16.18 54.59c0 7.5 3.24 10.15 8.39 10.15s8.38-2.65 8.38-10.15v-55.62c0-7.51-3.23-10.15-8.38-10.15s-8.39 2.64-8.39 10.15v55.62zm14.94-132.14v-25.57h10.38v26.38c0 7.89 2.99 11.9 8.28 11.9 5.43 0 8.42-3.81 8.42-11.9v-26.38h10.31v25.7c0 14.14-7.13 20.88-19.07 20.88-11.54 0-18.32-6.4-18.32-21.01zm52.6 52.83h10.89v103h-16.19v-78.58h-12.51v-11.47c6.33 0 10.16-1.47 12.66-3.83s3.97-5.59 5.15-9.12zm14.52-43.25c-1.22-5.71-3.19-7.27-7.4-7.34h-3.12v18.02h-10.25v-45.22a91.34 91.34 0 0 1 13.78-.95c6.79 0 11.54 1.02 14.79 3.6 2.72 2.18 4.21 5.37 4.21 9.59a12.166 12.166 0 0 1-8.07 11.29v.2c3.19 1.29 4.95 4.35 6.1 8.57 1.43 5.17 2.85 11.15 3.74 12.92h-10.59c-.75-1.29-1.83-5.03-3.19-10.68zm-5.84-27.81a26.371 26.371 0 0 0-4.68.34v12.65h4.07c5.16 0 8.21-2.58 8.21-6.6 0-4.21-2.85-6.32-7.6-6.39zm38.99-463.658h26.63v14.714h-42.81v-103h16.18v88.284zm23.32 456.318v25.7c0 14.14-7.13 20.88-19.07 20.88-11.54 0-18.33-6.4-18.33-21.01v-25.57h10.39v26.38c0 7.89 2.98 11.9 8.28 11.9 5.43 0 8.41-3.81 8.41-11.9v-26.38h10.32zm-172.46 32.43a12.219 12.219 0 0 1-4.76 9.73c-3.32 2.65-8.89 4.14-17.98 4.14a79.939 79.939 0 0 1-11.2-.68v-45.01a82.786 82.786 0 0 1 13.37-.95c6.31 0 10.18.61 13.51 2.58a9.975 9.975 0 0 1 5.49 8.98c0 4.08-2.37 7.89-7.53 9.79v.14c5.23 1.42 9.1 5.37 9.1 11.28zm-19.28-25.22a27.715 27.715 0 0 0-4.41.27v10.67h3.39c5.43 0 8.35-2.24 8.35-5.64 0-3.47-2.65-5.3-7.33-5.3zm-.88 18.36h-3.53v12.91a31.629 31.629 0 0 0 4 .14c4.69 0 8.83-1.77 8.83-6.6 0-4.62-4.14-6.45-9.3-6.45zm37.6-25.57h13.57l14.19 45.83h-11.13l-3.53-11.77h-13.1l-3.26 11.77h-10.72zm11.6 26.31l-2.85-9.72c-.81-2.72-1.62-6.12-2.3-8.84h-.14c-.68 2.72-1.36 6.19-2.1 8.84l-2.72 9.72h10.11zm-64.56 86.81v-10c0-16.63 8.24-25.9 24.13-25.9s24.13 9.27 24.13 25.9a46.76 46.76 0 0 1-8.24 26.48 89.661 89.661 0 0 1-7.8 10.01c-5.59 6.03-10.74 11.48-13.83 16.63a15.57 15.57 0 0 0-2.35 8.24 8.248 8.248 0 0 0 .15 2.2h30.6v14.72h-46.79v-12.66c0-10 3.53-17.36 8.39-23.83a87.52 87.52 0 0 1 7.65-8.98c5.44-5.59 10.59-11.62 13.68-19.13a32.492 32.492 0 0 0 2.36-13.09c0-9.27-3.24-11.77-8.39-11.77s-8.39 2.64-8.39 10.15v11.03h-15.3zm-85.93-554.724h-25.6v-103h25.6c16.33 0 24.13 8.829 24.13 25.456V428.8c0 16.629-7.8 25.457-24.13 25.457zm7.95-78.278c0-7.5-3.09-10.006-8.24-10.006h-9.126v73.57h9.126c5.15 0 8.24-2.5 8.24-10v-53.562zm70.62 63.564v14.714h-44.14v-103h44.14v14.714h-27.95v28.693h22.21v14.717h-22.21v30.163h27.95zm21.63 14.714l-15.89-103h16.33l12.36 84.017 12.36-84.017h14.87l-15.9 103h-24.13zm144.5 162.524l23.92 111h5.01l7.54 35h-5l12.05 55.887h-55.16l-10.74-55.887h5l-.63-3.267h-36.11l-.59 3.267h-5l-10.16 55.887h-109.09l-18.47-55.887h5l-11.57-35h-5l-11.75-35.564-10.14 26.12v9.444h5v35h-5v55.887h-55.931v-55.887h5v-35h-5v-111h-3v-31h3v-43.675h55.931v43.675h-3v31h3v30.265l12.49-30.265h-3l12.8-31h3l18.03-43.675h62.54l-21.75 43.675h-3l-15.44 31h3l-19.2 38.562 26.85 72.438h5l12.97 35h-5l17.9 48.293 10.44-48.293h5l7.56-35h-5l23.99-111h-3l6.7-31h3l9.44-43.675h49.47l9.42 43.675h-3l6.68 31h3zm-26.7 108.317l-13.98-102.636-14.6 102.636h28.58zm123.22-270.841l-15.75-41.052-5 9.417v31.635h-16.18v-103h16.18v44.878l21.19-44.876h16.18l-22.51 45.908 22.51 57.09h-16.62zm53.26-55.177c5.3 4.855 10.3 10.447 13.39 17.656a31.531 31.531 0 0 1 2.36 12.8c0 16.626-8.24 25.9-24.13 25.9s-24.13-9.27-24.13-25.9v-6.325h15.3v7.357c0 7.5 3.23 10 8.38 10s8.39-2.5 8.39-10c0-7.063-3.53-12.213-8.24-17.069-2.35-2.354-4.85-4.708-7.5-7.209-5.45-4.709-10.45-10.3-13.54-17.51a31.528 31.528 0 0 1-2.35-12.8c0-16.627 7.94-25.9 23.83-25.9s23.84 9.27 23.84 25.9v3.237h-15.3v-4.267c0-7.5-2.95-10.153-8.1-10.153s-8.09 2.649-8.09 10.153c0 7.063 3.53 12.212 8.24 16.921a91.708 91.708 0 0 0 7.65 7.21zm-110.41 184.818v-41.792h136.28v41.792h-39.79v1.883h-3v31h3v111h5v35h-5v55.887h-55.93v-55.887h5v-35h-5v-111h-3v-31h3v-1.883h-40.56zm-36.43 418.313v-3.23c0-16.63 8.83-25.9 25.31-25.9s25.3 9.27 25.3 25.9v3.23c0 10.16-3.38 17.07-10 20.75 7.06 3.97 10 11.48 10 21.48v8.1c0 16.62-8.82 25.89-25.3 25.89s-25.31-9.27-25.31-25.89v-8.1c0-10 2.94-17.51 10-21.48-6.62-3.68-10-10.59-10-20.75zm16.18 49.89c0 9.27 3.98 11.62 9.13 11.62s8.97-2.35 9.12-11.62v-9.57c0-8.24-3.39-11.62-9.12-11.62s-9.13 3.38-9.13 11.62v9.57zm0-46.8c0 8.24 3.83 10.89 9.13 10.89 5.15 0 9.12-2.65 9.12-10.89v-5.73c0-9.27-3.97-11.77-9.12-11.77s-9.13 2.5-9.13 11.77v5.73z" fill="#79221D" fill-rule="evenodd"/></svg>
