<?xml version="1.0" standalone="no"?>
<!DOCTYPE svg PUBLIC "-//W3C//DTD SVG 20010904//EN"
 "http://www.w3.org/TR/2001/REC-SVG-20010904/DTD/svg10.dtd">
<svg version="1.0" xmlns="http://www.w3.org/2000/svg"
 width="2000.000000pt" height="2000.000000pt" viewBox="0 0 2000.000000 2000.000000"
 preserveAspectRatio="xMidYMid meet">
<metadata>
Created by potrace 1.11, written by Peter Selinger 2001-2013
</metadata>
<g transform="translate(0.000000,2000.000000) scale(0.100000,-0.100000)"
fill="#000000" stroke="none">
<path d="M9798 15595 c-2 -1 -59 -5 -126 -9 -68 -3 -134 -8 -145 -11 -12 -2
-51 -6 -87 -10 -36 -3 -80 -7 -98 -10 -129 -17 -191 -26 -208 -29 -41 -8 -191
-36 -219 -40 -52 -9 -356 -86 -445 -112 -640 -192 -1212 -479 -1748 -877 -108
-80 -304 -239 -377 -306 -168 -155 -346 -335 -455 -458 -423 -477 -762 -1028
-1005 -1633 -71 -177 -158 -436 -191 -570 -2 -8 -17 -66 -33 -129 -17 -63 -32
-126 -35 -140 -2 -14 -9 -47 -15 -72 -6 -26 -22 -114 -35 -195 -32 -192 -37
-230 -52 -379 -3 -38 -8 -78 -9 -87 -6 -32 -18 -334 -18 -463 0 -123 11 -411
17 -465 2 -14 7 -61 11 -105 4 -44 9 -89 11 -100 2 -11 8 -58 14 -105 61 -453
225 -1044 394 -1415 13 -27 38 -84 57 -125 19 -41 64 -133 100 -205 59 -116
83 -159 162 -295 11 -19 25 -44 31 -55 45 -80 197 -304 295 -434 47 -63 96
-127 107 -143 12 -16 34 -43 50 -61 16 -18 40 -45 52 -62 97 -127 443 -475
637 -641 157 -134 357 -286 516 -392 l107 -71 -95 -263 c-84 -235 -104 -290
-133 -363 -27 -66 -150 -418 -150 -426 0 -6 8 -8 18 -5 9 3 69 14 132 25 63
11 126 22 140 25 58 11 267 48 295 52 17 3 53 9 80 15 28 5 66 12 85 15 19 3
69 11 110 19 41 8 86 16 100 19 14 2 43 7 65 11 22 4 49 9 60 11 11 2 46 9 78
15 32 5 70 12 85 14 22 3 114 19 227 41 10 2 35 6 55 9 20 3 47 8 60 10 14 3
40 8 59 11 18 3 43 8 55 10 11 2 35 6 51 9 17 3 41 8 55 10 181 36 193 37 340
2 119 -28 419 -81 525 -92 33 -3 74 -8 90 -10 281 -38 819 -40 1155 -4 140 15
217 24 285 36 17 2 39 6 50 8 59 8 271 49 345 67 47 11 93 22 103 24 98 22
314 87 467 139 522 179 1029 446 1476 776 72 53 142 106 155 117 13 11 58 48
99 82 187 155 451 408 590 565 592 670 1002 1428 1228 2270 31 114 41 156 48
190 2 11 8 40 14 65 14 66 58 308 65 360 3 25 8 62 11 82 12 87 14 106 19 168
3 36 8 81 10 100 22 189 22 654 1 910 -14 155 -20 211 -36 321 -21 137 -25
163 -41 254 -6 33 -13 74 -16 90 -15 94 -121 482 -177 647 -114 341 -275 701
-443 988 -11 19 -37 64 -58 100 -71 121 -321 488 -355 520 -3 3 -19 23 -35 45
-27 37 -147 182 -220 265 -62 71 -403 410 -485 482 -72 63 -202 168 -315 256
-49 37 -295 212 -299 212 -3 0 -31 17 -63 38 -189 125 -489 287 -728 393 -131
58 -358 149 -380 153 -5 1 -14 4 -20 7 -17 11 -225 76 -355 112 -224 62 -559
133 -720 152 -30 3 -66 8 -80 10 -33 5 -98 12 -185 20 -38 4 -88 9 -110 11
-48 5 -642 13 -647 9z"/>
</g>
</svg>
